<svg width="150" height="34" viewBox="0 0 150 34" fill="none" xmlns="http://www.w3.org/2000/svg">
<path d="M6.25494 31.8475C5.0119 31.249 3.95301 30.4433 3.12432 29.4074C2.27261 28.3946 1.62807 27.1976 1.1907 25.8625C0.730315 24.5273 0.500122 23.1462 0.500122 21.696C0.500122 20.2458 0.730315 18.8646 1.16768 17.5295C1.62807 16.1944 2.27261 15.0204 3.1013 13.9845C3.92999 12.9717 4.98888 12.143 6.23192 11.5445C7.47496 10.946 8.87913 10.6467 10.4444 10.6467C11.4573 10.6467 12.3781 10.8309 13.1607 11.1532C13.9664 11.4984 14.5419 11.8437 14.9332 12.166V0.978638H21.2405V23.1462C21.2405 24.6424 21.5167 25.9315 22.0692 27.0134C22.6216 28.0953 23.4964 29.0852 24.6703 29.9829L19.1687 32.7682C18.9846 32.6531 18.8004 32.492 18.5933 32.2618C18.3861 32.0546 18.1559 31.8245 17.9487 31.5712C17.7185 31.318 17.5114 31.0648 17.3272 30.8116C17.143 30.5584 16.9819 30.3282 16.8898 30.121C16.7287 30.3052 16.4985 30.5354 16.1762 30.8346C15.854 31.1339 15.4166 31.4101 14.8641 31.6863C14.3347 31.9626 13.6902 32.1928 12.9535 32.3999C12.2169 32.6071 11.3882 32.7222 10.4444 32.7222C8.90215 32.7452 7.49798 32.446 6.25494 31.8475ZM9.17838 16.7699C8.67196 17.0921 8.28063 17.5065 7.93534 18.0129C7.61307 18.5193 7.35986 19.0948 7.17571 19.7393C6.99155 20.3839 6.89948 21.0284 6.89948 21.696C6.89948 22.3635 6.99155 23.0081 7.17571 23.6526C7.35986 24.2972 7.61307 24.8726 7.93534 25.3791C8.25761 25.8855 8.67196 26.2998 9.17838 26.6221C9.68481 26.9444 10.2603 27.1055 10.9048 27.1055C11.5724 27.1055 12.1479 26.9444 12.6543 26.6221C13.1607 26.2998 13.5751 25.8855 13.9204 25.3791C14.2426 24.8726 14.4958 24.2972 14.68 23.6526C14.8641 23.0081 14.9562 22.3635 14.9562 21.696C14.9562 21.0284 14.8641 20.3839 14.68 19.7393C14.4958 19.0948 14.2426 18.5193 13.9204 18.0129C13.5981 17.5065 13.1607 17.0921 12.6543 16.7699C12.1479 16.4476 11.5494 16.2864 10.9048 16.2864C10.2373 16.3095 9.66179 16.4476 9.17838 16.7699Z" fill="white"/>
<path d="M46.2625 27.0135C46.8149 28.0954 47.6897 29.0852 48.8636 29.9829L43.362 32.7683C43.0858 32.5841 42.7635 32.2619 42.3952 31.8245C42.0269 31.3641 41.7047 30.9958 41.4745 30.6735C41.2443 30.3513 41.1062 30.1901 41.0831 30.1441C41.0601 30.1211 40.876 30.2362 40.5307 30.5354C40.1854 30.8116 39.725 31.1339 39.1265 31.4562C38.551 31.7784 37.8604 32.1007 37.1008 32.3769C36.3412 32.6532 35.5355 32.8143 34.6838 32.8143C33.5789 32.8143 32.566 32.6302 31.6682 32.2619C30.7705 31.8935 30.0109 31.4101 29.3663 30.7886C28.7448 30.1671 28.2384 29.4535 27.8931 28.6018C27.5478 27.7501 27.3636 26.8523 27.3636 25.9085V11.3373H33.6709V23.9059C33.6709 24.9878 33.8551 25.7704 34.2234 26.2308C34.5917 26.6912 35.0981 26.9214 35.7887 26.9214C36.4563 26.9214 37.0317 26.7372 37.5612 26.3689C38.0906 26.0006 38.4589 25.6323 38.6891 25.31C38.9193 24.9878 39.0344 24.7806 39.0805 24.7346V11.3373H45.3877V23.1462C45.4108 24.6425 45.71 25.9316 46.2625 27.0135Z" fill="white"/>
<path d="M65 11.5675C66.2661 12.166 67.371 12.9717 68.2918 14.0075C69.2125 15.0204 69.9261 16.2174 70.4556 17.5525C70.985 18.8876 71.2382 20.2688 71.2382 21.719C71.2382 23.1692 70.962 24.5504 70.4556 25.8855C69.9261 27.2206 69.2125 28.3946 68.2918 29.4304C67.371 30.4433 66.2891 31.272 65 31.8705C63.7109 32.469 62.3298 32.7682 60.8335 32.7682C59.3373 32.7682 57.9331 32.469 56.667 31.8705C55.401 31.272 54.296 30.4663 53.3753 29.4304C52.4545 28.4176 51.7409 27.2206 51.2115 25.8855C50.682 24.5504 50.4288 23.1692 50.4288 21.719C50.4288 20.2688 50.682 18.8876 51.2115 17.5525C51.7409 16.2174 52.4545 15.0434 53.3753 14.0075C54.296 12.9947 55.3779 12.166 56.667 11.5675C57.9331 10.969 59.3373 10.6697 60.8335 10.6697C62.3298 10.6697 63.7109 10.969 65 11.5675ZM57.0814 23.6756C57.2655 24.3202 57.5187 24.8956 57.841 25.4021C58.1633 25.9085 58.5776 26.3228 59.084 26.6451C59.5905 26.9674 60.166 27.1285 60.8105 27.1285C61.4781 27.1285 62.0535 26.9674 62.5369 26.6451C63.0434 26.3228 63.4577 25.9085 63.803 25.4021C64.1483 24.8956 64.4015 24.3202 64.5626 23.6756C64.7238 23.0311 64.8158 22.3865 64.8158 21.719C64.8158 21.0514 64.7238 20.4069 64.5626 19.7623C64.4015 19.1178 64.1483 18.5423 63.803 18.0359C63.4577 17.5295 63.0434 17.1151 62.5369 16.7929C62.0305 16.4706 61.455 16.3095 60.8105 16.3095C60.1429 16.3095 59.5675 16.4706 59.084 16.7929C58.5776 17.1151 58.1863 17.5295 57.841 18.0359C57.5187 18.5423 57.2655 19.1178 57.0814 19.7623C56.8972 20.4069 56.8051 21.0514 56.8051 21.719C56.8282 22.3635 56.9202 23.0311 57.0814 23.6756Z" fill="white"/>
<path d="M81.8272 31.3411C81.0445 32.1238 80.1008 32.5151 78.9958 32.5151C77.8909 32.5151 76.9471 32.1238 76.1645 31.3411C75.3818 30.5585 74.9905 29.6147 74.9905 28.5097C74.9905 27.4048 75.3818 26.461 76.1645 25.6784C76.9471 24.8957 77.8909 24.5044 78.9958 24.5044C80.1008 24.5044 81.0445 24.8957 81.8272 25.6784C82.6099 26.461 83.0012 27.4048 83.0012 28.5097C83.0012 29.6147 82.6099 30.5585 81.8272 31.3411Z" fill="white"/>
<path d="M93.2634 11.443H93.9242V16.234C93.9242 17.5557 93.5938 18.5469 92.8999 19.2738C92.206 19.9677 91.3469 20.3312 90.2566 20.3312C89.1662 20.3312 88.3071 19.9677 87.6132 19.2738C86.9194 18.58 86.589 17.6218 86.589 16.3992V11.476H87.2828V16.3662C87.2828 17.4235 87.5472 18.2165 88.1089 18.8113C88.6706 19.406 89.3644 19.7034 90.2566 19.7034C91.1487 19.7034 91.8756 19.406 92.4043 18.8113C92.966 18.2165 93.2303 17.3574 93.2303 16.2671V11.443H93.2634Z" fill="white"/>
<path d="M103.771 11.443V20.199H103.209L96.5676 12.5664V20.199H95.8737V11.443H96.4684L103.077 19.1086V11.443H103.771Z" fill="white"/>
<path d="M106.579 11.443V19.6373H110.907V20.199H105.918V11.443H106.579Z" fill="white"/>
<path d="M112.692 11.443H112.031V20.199H112.692V11.443Z" fill="white"/>
<path d="M118.837 15.5071L122.175 11.443H122.869V20.199H122.175V12.4342L118.837 16.5314L115.5 12.4342V20.199H114.839V11.443H115.5L118.837 15.5071Z" fill="white"/>
<path d="M125.644 11.443H124.983V20.199H125.644V11.443Z" fill="white"/>
<path d="M134.07 11.443V12.0047H130.799V20.199H130.105V12.0047H126.834V11.443H134.07Z" fill="white"/>
<path d="M140.05 11.443V12.0047H135.953V15.5071H139.951V16.0688H135.953V19.6373H140.149V20.199H135.259V11.443H140.05Z" fill="white"/>
<path d="M141.669 11.443H144.742C146.295 11.443 147.485 11.8395 148.278 12.6655C149.104 13.4916 149.5 14.5159 149.5 15.8045C149.5 17.0601 149.104 18.1174 148.278 18.9434C147.485 19.7695 146.328 20.166 144.841 20.166H141.669V11.443ZM142.363 12.0047V19.6373H144.841C145.965 19.6373 146.923 19.2738 147.683 18.58C148.443 17.8861 148.806 16.9609 148.806 15.8045C148.806 14.6811 148.443 13.7559 147.683 13.062C146.956 12.3682 145.965 12.0047 144.808 12.0047H142.363Z" fill="white"/>
<path d="M86.5889 24.0682H89.6804C91.2428 24.0682 92.4395 24.4671 93.2373 25.2981C94.0684 26.1292 94.4673 27.1597 94.4673 28.4561C94.4673 29.7193 94.0684 30.783 93.2373 31.6141C92.4395 32.4451 91.276 32.844 89.7802 32.844H86.5889V24.0682ZM87.2538 24.6333V32.3122H89.7469C90.8771 32.3122 91.8411 31.9465 92.6057 31.2484C93.3703 30.5503 93.7359 29.6196 93.7359 28.4561C93.7359 27.3259 93.3703 26.3951 92.6057 25.697C91.8744 24.9989 90.8771 24.6333 89.7137 24.6333H87.2538Z" fill="white"/>
<path d="M96.9271 24.0637H96.2623V32.8728H96.9271V24.0637Z" fill="white"/>
<path d="M103.21 24.5288V25.2934C102.445 24.828 101.78 24.6285 101.249 24.6285C100.717 24.6285 100.285 24.7947 99.9189 25.1272C99.5533 25.4596 99.3871 25.8585 99.3871 26.3239C99.3871 26.6563 99.4868 26.9555 99.6863 27.2547C99.8857 27.5206 100.318 27.7865 101.016 28.0525C101.681 28.3184 102.179 28.5178 102.479 28.684C102.778 28.8503 103.044 29.083 103.276 29.4154C103.476 29.7478 103.609 30.1467 103.609 30.6453C103.609 31.3102 103.376 31.9085 102.877 32.3739C102.379 32.8393 101.78 33.072 101.049 33.072C100.318 33.072 99.5533 32.806 98.7887 32.3074V31.5096C99.653 32.1412 100.384 32.4404 101.016 32.4404C101.548 32.4404 101.98 32.2742 102.346 31.9418C102.711 31.6093 102.877 31.1772 102.877 30.7118C102.877 30.3461 102.778 30.0137 102.545 29.7145C102.312 29.4154 101.88 29.1494 101.182 28.8835C100.517 28.6176 100.019 28.4181 99.7195 28.2519C99.4203 28.0857 99.1876 27.853 98.9882 27.5538C98.7887 27.2546 98.689 26.889 98.689 26.4236C98.689 25.792 98.9217 25.2269 99.4203 24.7615C99.9189 24.2961 100.517 24.0634 101.215 24.0634C101.88 23.9637 102.545 24.1299 103.21 24.5288Z" fill="white"/>
<path d="M108.595 24.0637C109.426 24.0637 110.091 24.2964 110.59 24.7617C111.088 25.2271 111.354 25.8587 111.354 26.59C111.354 27.3546 111.088 27.953 110.556 28.4183C110.024 28.8837 109.36 29.1164 108.495 29.1164H106.866V32.8728H105.171V24.0637H108.595ZM108.196 27.8532C108.661 27.8532 108.994 27.7535 109.26 27.5541C109.526 27.3546 109.625 27.0222 109.625 26.6233C109.625 25.8255 109.094 25.3933 108.063 25.3933H106.9V27.8532H108.196Z" fill="white"/>
<path d="M114.579 24.0637V31.5431H118.833V32.8728H112.883V24.0637H114.579Z" fill="white"/>
<path d="M125.814 24.0637L129.704 32.8728H127.908L127.011 30.7453H123.088L122.224 32.8728H120.429L124.052 24.0637H125.814ZM123.62 29.4488H126.446L124.95 25.9584L123.62 29.4488Z" fill="white"/>
<path d="M130.801 24.0637L132.928 27.0222L135.056 24.0637H137.083L133.759 28.5181V32.8728H132.064V28.4848L128.706 24.0637H130.801Z" fill="white"/>
</svg>
