<svg width="121" height="38" viewBox="0 0 121 38" fill="none" xmlns="http://www.w3.org/2000/svg">
<rect x="0.5" y="0.978638" width="120" height="37" rx="3" fill="#BEBEC0"/>
<path fill-rule="evenodd" clip-rule="evenodd" d="M6.5 11.7714V16.5492H7.03351H7.56703L7.59843 12.8188L7.62982 9.08828L9.29483 11.5188C10.2106 12.8558 10.9947 13.9513 11.0371 13.9534C11.0797 13.9556 11.8557 12.8768 12.7616 11.5562L14.4088 9.15496L14.4402 12.8521L14.4716 16.5492H15.0645H15.6575V11.7779V7.00656H15.0808H14.5041L12.8008 9.54291C11.8189 11.0054 11.0533 12.0354 10.9929 11.9756C10.9352 11.9184 10.155 10.7904 9.25903 9.46869L7.62982 7.06546L7.06491 7.02953L6.5 6.9936V11.7714ZM20.2441 11.6306C19.0799 14.1739 18.1 16.324 18.0664 16.4087C18.02 16.5259 18.1522 16.554 18.6215 16.5265L19.2374 16.4903L19.7823 15.2828L20.3273 14.0752L22.8981 14.0758L25.4691 14.0763L26.0043 15.2834L26.5395 16.4903L27.1792 16.5265C27.6773 16.5547 27.8053 16.5274 27.7573 16.4037C27.7234 16.3163 26.7455 14.1663 25.5841 11.6257L23.4724 7.00656H22.9167H22.3608L20.2441 11.6306ZM30.1668 11.7639V16.5492H32.2231C34.9814 16.5492 36.0312 16.2641 37.1606 15.2086C39.2677 13.2388 39.0188 9.54809 36.6734 7.98639C35.5112 7.21249 34.9839 7.09339 32.4562 7.03318L30.1668 6.97864V11.7639ZM41.4255 7.08514C41.3818 7.12826 41.3461 9.27536 41.3461 11.8565V16.5492H44.8545H48.3629V16.0191V15.4889H45.4492H42.5354V13.9009V12.3126L45.1221 12.281L47.7088 12.2491L47.7453 11.7484L47.782 11.2478H45.1586H42.5354V9.6573V8.06686H45.4492H48.3629V7.53671V7.00656H44.9339C43.0478 7.00656 41.469 7.0419 41.4255 7.08514ZM55.8554 11.7779V16.5492H56.3906H56.9258V11.7779V7.00656H56.3906H55.8554V11.7779ZM60.2558 11.7844V16.5622L60.8207 16.5263L61.3856 16.4903L61.417 12.7427L61.4484 8.99509L64.4331 12.7427C67.3647 16.4237 67.426 16.4909 67.8803 16.5265L68.343 16.5628V11.7846V7.00656H67.8078H67.2726V10.7445V14.4824L66.9328 14.0726C66.746 13.8472 65.4047 12.1651 63.9522 10.3347L61.3114 7.00656H60.7836H60.2558V11.7844ZM35.2617 8.48026C37.5248 9.48624 38.1346 12.4254 36.4573 14.2432C35.5749 15.1998 34.9941 15.4046 32.9914 15.4657L31.3561 15.5157V11.7746V8.0334L32.9412 8.09336C34.3429 8.14638 34.6114 8.19115 35.2617 8.48026ZM23.8968 10.5824C24.3984 11.7066 24.8429 12.7139 24.8841 12.8208C24.9523 12.9965 24.7625 13.0149 22.8778 13.0149H20.7961L21.8162 10.7765C22.3773 9.54538 22.8697 8.5381 22.9105 8.5381C22.9513 8.5381 23.395 9.45797 23.8968 10.5824ZM53.4467 21.6252C52.3044 21.8918 50.9041 22.9233 50.3015 23.942C49.3123 25.6141 49.3123 27.8657 50.3015 29.5378C50.6753 30.1696 51.6188 31.0554 52.267 31.383C54.2605 32.3904 56.7645 32.0987 58.4053 30.6682L58.964 30.181L58.3954 29.609C58.0826 29.2945 57.7789 29.0372 57.7205 29.0372C57.6621 29.0372 57.446 29.178 57.2403 29.35C55.8019 30.5532 53.5291 30.4982 52.4498 29.2342C51.2523 27.8319 51.2347 25.6126 52.4106 24.2893C53.5497 23.0073 55.4504 22.8512 56.9473 23.9165C57.2631 24.1412 57.5669 24.3383 57.6225 24.3543C57.678 24.3705 57.9796 24.1027 58.2925 23.7591L58.8616 23.1346L58.5392 22.8012C58.1201 22.368 57.1798 21.8651 56.4085 21.6616C55.7308 21.4829 54.1399 21.4634 53.4467 21.6252ZM6.57933 21.6937C6.53568 21.7368 6.5 24.0155 6.5 26.7573V31.7424L6.77389 31.8105C6.92458 31.8479 7.3394 31.8622 7.69559 31.8422L8.3434 31.8058L8.37598 29.7735L8.40845 27.7413H10.9627H13.5168V26.8577V25.9741H10.9598H8.40286V24.6803V23.3865L11.2869 23.3549L14.1709 23.3234L14.2059 22.4692L14.2408 21.6151H10.4496C8.36457 21.6151 6.62285 21.6505 6.57933 21.6937ZM16.2806 26.7104L16.3116 31.8058H17.1441H17.9766L18.0096 30.068L18.0424 28.3303H19.1503H20.2583L21.4994 30.068L22.7406 31.8058L23.7777 31.8398C24.515 31.864 24.815 31.8336 24.815 31.7348C24.815 31.6584 24.2318 30.7872 23.5189 29.7988L22.2229 28.0019L22.7151 27.7832C23.8908 27.261 24.574 26.2262 24.576 24.9642C24.5788 23.2358 23.6384 22.1197 21.8657 21.7474C21.514 21.6737 20.1334 21.6151 18.7425 21.6151H16.2497L16.2806 26.7104ZM30.1648 22.1747C27.5004 28.1132 25.9914 31.6633 26.0897 31.7607C26.1538 31.8242 26.5751 31.8604 27.0258 31.841L27.8452 31.8058L28.3689 30.5958L28.8924 29.3858L31.2785 29.4177L33.6645 29.4495L34.1381 30.5687C34.3987 31.1843 34.6686 31.7269 34.7381 31.7745C34.9266 31.9035 36.4448 31.8827 36.5276 31.7498C36.5833 31.6606 33.236 23.8871 32.3285 21.998C32.1459 21.6178 32.1383 21.6151 31.2802 21.6151H30.4159L30.1648 22.1747ZM38.4273 21.7624C38.396 21.8434 38.3842 24.1363 38.4013 26.8577L38.4324 31.8058H39.3243H40.2163L40.2758 28.3358L40.3352 24.8659L42.8226 28.0412C46.0184 32.1209 45.7714 31.8651 46.512 31.8629C46.8433 31.8618 47.1816 31.8186 47.2641 31.7668C47.3818 31.6928 47.4075 30.5944 47.3831 26.6732L47.352 21.674L46.4321 21.6396L45.5122 21.6052L45.4807 25.0244L45.4492 28.4435L42.7816 25.0293L40.114 21.6151H39.2993C38.7569 21.6151 38.4653 21.6644 38.4273 21.7624ZM60.8789 26.7104L60.9099 31.8058L64.4778 31.8387C66.4401 31.8569 68.1685 31.842 68.3186 31.8058C68.5742 31.7439 68.5893 31.6894 68.5564 30.9481L68.5214 30.1564L65.6373 30.1248L62.7533 30.0933V28.8018V27.5104L65.2806 27.4786L67.8078 27.4468V26.681V25.9152L65.2806 25.8834L62.7533 25.8516V24.558V23.2645H65.6076H68.4619V22.4398V21.6151H64.6549H60.848L60.8789 26.7104ZM21.8082 23.579C22.9817 24.1307 22.9569 25.8167 21.7667 26.392C21.3867 26.5757 21.0275 26.615 19.7011 26.6182L18.0956 26.6221L18.0625 25.0022L18.0294 23.3823H19.7095C21.0326 23.3823 21.4786 23.4241 21.8082 23.579ZM32.1221 25.8402C32.5512 26.8324 32.9022 27.6661 32.9022 27.6927C32.9022 27.7195 32.1797 27.7413 31.2967 27.7413C30.2448 27.7413 29.6911 27.6982 29.6911 27.6164C29.6911 27.4975 30.9005 24.6221 31.1417 24.1674C31.2048 24.0485 31.2757 23.9703 31.2993 23.9936C31.3228 24.0169 31.6932 24.8478 32.1221 25.8402Z" fill="black"/>
<path d="M76.5 31.9786V19.4786V6.97864H96.5H116.5V19.4786V31.9786H96.5H76.5Z" fill="white"/>
<path d="M103.308 31.9785V19.4785V6.97852H110.027H116.747V19.4785V31.9785H110.027H103.308Z" fill="#BF0219"/>
<path d="M76.3112 31.9785V19.4785V6.97852H83.0908H89.8702L89.84 19.4476L89.8096 31.9167L83.0604 31.9475L76.3112 31.9785Z" fill="#163463"/>
</svg>
