<svg width="29" height="29" viewBox="0 0 29 29" fill="none" xmlns="http://www.w3.org/2000/svg">
<rect x="0.499969" y="0.231445" width="28.4868" height="28.4868" rx="7.59649" fill="url(#paint0_linear_2_3710)"/>
<path d="M21.4969 6.87854H7.992C7.52524 6.87854 7.14795 7.25583 7.14795 7.72259V21.2275C7.14795 21.6942 7.52524 22.0715 7.992 22.0715H21.4969C21.9636 22.0715 22.3409 21.6942 22.3409 21.2275V7.72259C22.3409 7.25583 21.9636 6.87854 21.4969 6.87854ZM11.9987 16.7928C10.7183 16.7928 9.6818 15.7555 9.6818 14.475C9.6818 13.1946 10.7191 12.1573 11.9987 12.1573C13.2808 12.1573 14.3173 13.1946 14.3173 14.475C14.3173 15.7563 13.2808 16.7928 11.9987 16.7928ZM17.4902 16.7928C16.2097 16.7928 15.1715 15.7555 15.1715 14.475C15.1715 13.1946 16.2097 12.1573 17.4902 12.1573C18.7706 12.1573 19.8071 13.1946 19.8071 14.475C19.8071 15.7563 18.7706 16.7928 17.4902 16.7928Z" fill="white" fill-opacity="0.45"/>
<defs>
<linearGradient id="paint0_linear_2_3710" x1="4.29822" y1="-19.7501" x2="14.7434" y2="28.7183" gradientUnits="userSpaceOnUse">
<stop stop-color="#FF2C91"/>
<stop offset="1" stop-color="#921654"/>
</linearGradient>
</defs>
</svg>
