<svg width="30" height="29" viewBox="0 0 30 29" fill="none" xmlns="http://www.w3.org/2000/svg">
<rect x="0.546783" y="0.231567" width="28.4868" height="28.4868" rx="7.59649" fill="url(#paint0_linear_2_3713)"/>
<g clip-path="url(#clip0_2_3713)">
<path d="M12.6291 20.6465C18.0027 20.6465 20.9426 15.8966 20.9426 11.7788C20.9426 11.6453 20.9398 11.5088 20.9343 11.3752C21.5062 10.9341 21.9997 10.3876 22.3917 9.76157C21.8591 10.0143 21.2936 10.1794 20.7145 10.2512C21.3242 9.86134 21.7807 9.24892 21.9995 8.52744C21.4259 8.89004 20.7986 9.14582 20.1445 9.28382C19.7038 8.78432 19.1211 8.45359 18.4864 8.34277C17.8518 8.23194 17.2007 8.3472 16.6336 8.67071C16.0666 8.99423 15.6153 9.50798 15.3494 10.1325C15.0836 10.7571 15.018 11.4577 15.1629 12.126C14.0014 12.0638 12.8652 11.742 11.8278 11.1814C10.7905 10.6207 9.87512 9.83382 9.14115 8.87165C8.76811 9.5577 8.65396 10.3695 8.8219 11.1421C8.98984 11.9147 9.42726 12.5901 10.0453 13.031C9.58131 13.0153 9.12751 12.8821 8.72136 12.6423V12.6809C8.72094 13.4008 8.95428 14.0987 9.38171 14.6559C9.80914 15.2131 10.4043 15.5952 11.066 15.7373C10.6362 15.8627 10.1851 15.881 9.74761 15.7907C9.93432 16.4099 10.2976 16.9514 10.7867 17.3397C11.2759 17.7281 11.8665 17.9438 12.4761 17.9569C11.4411 18.8241 10.1626 19.2944 8.84655 19.2922C8.61315 19.2918 8.37998 19.2766 8.14828 19.2465C9.4853 20.1615 11.0406 20.6474 12.6291 20.6465Z" fill="white" fill-opacity="0.45"/>
</g>
<defs>
<linearGradient id="paint0_linear_2_3713" x1="4.34503" y1="-19.75" x2="14.7902" y2="28.7184" gradientUnits="userSpaceOnUse">
<stop stop-color="#00C2FF"/>
<stop offset="1" stop-color="#18718F"/>
</linearGradient>
<clipPath id="clip0_2_3713">
<rect width="14.2434" height="15.193" fill="white" transform="translate(8.14441 6.87866)"/>
</clipPath>
</defs>
</svg>
