<svg width="30" height="29" viewBox="0 0 30 29" fill="none" xmlns="http://www.w3.org/2000/svg">
<rect x="0.750793" y="0.231567" width="28.4868" height="28.4868" rx="7.59649" fill="url(#paint0_linear_2_3733)"/>
<g clip-path="url(#clip0_2_3733)">
<path d="M22.4417 11.4363C22.4417 11.4363 22.2934 10.3888 21.8364 9.92884C21.2577 9.32349 20.6109 9.32053 20.3141 9.28492C18.1895 9.13062 14.9995 9.13062 14.9995 9.13062H14.9936C14.9936 9.13062 11.8037 9.13062 9.67903 9.28492C9.3823 9.32053 8.73541 9.32349 8.15677 9.92884C7.69979 10.3888 7.55439 11.4363 7.55439 11.4363C7.55439 11.4363 7.40009 12.6677 7.40009 13.8962V15.0476C7.40009 16.2761 7.55142 17.5075 7.55142 17.5075C7.55142 17.5075 7.69979 18.555 8.1538 19.015C8.73244 19.6203 9.49209 19.5995 9.83037 19.6648C11.047 19.7805 14.9966 19.8161 14.9966 19.8161C14.9966 19.8161 18.1895 19.8102 20.3141 19.6589C20.6109 19.6233 21.2577 19.6203 21.8364 19.015C22.2934 18.555 22.4417 17.5075 22.4417 17.5075C22.4417 17.5075 22.5931 16.279 22.5931 15.0476V13.8962C22.5931 12.6677 22.4417 11.4363 22.4417 11.4363ZM13.4268 16.4452V12.1751L17.5307 14.3176L13.4268 16.4452Z" fill="white" fill-opacity="0.45"/>
</g>
<defs>
<linearGradient id="paint0_linear_2_3733" x1="4.54904" y1="-19.75" x2="14.9942" y2="28.7184" gradientUnits="userSpaceOnUse">
<stop stop-color="#FF2C2C"/>
<stop offset="1" stop-color="#B12728"/>
</linearGradient>
<clipPath id="clip0_2_3733">
<rect width="15.193" height="15.193" fill="white" transform="translate(7.39966 6.87866)"/>
</clipPath>
</defs>
</svg>
